<svg width="400" height="569" viewBox="0 0 600 769" fill="none" xmlns="http://www.w3.org/2000/svg">
<path d="M65.7016 768.9C46.6349 768.9 32.3349 765.6 22.8016 759C13.2682 752.4 7.0349 743.6 4.10156 732.6C1.90156 721.6 0.801565 709.5 0.801565 696.3V71.5C0.801565 58.3 2.26823 46.5667 5.20157 36.3C8.1349 25.3 14.0016 16.4999 22.8016 9.89994C32.3349 3.29994 47.0016 -6.29425e-05 66.8016 -6.29425e-05H357.202C399.735 -6.29425e-05 437.135 9.89994 469.402 29.6999C502.402 49.5 528.068 75.9 546.402 108.9C564.735 141.167 573.902 176.733 573.902 215.6C573.902 233.2 571.702 250.8 567.302 268.4C563.635 285.267 557.402 301.033 548.602 315.7C540.535 330.367 530.268 343.567 517.802 355.3C534.668 368.5 549.335 384.633 561.802 403.7C574.268 422.767 583.435 443.667 589.302 466.4C595.902 488.4 599.202 511.5 599.202 535.7C598.468 568.7 592.235 599.5 580.502 628.1C568.768 655.967 552.268 680.533 531.002 701.8C510.468 723.067 486.268 739.567 458.402 751.3C430.535 763.033 400.468 768.9 368.202 768.9H65.7016ZM133.902 639.1H357.202C378.468 639.1 397.168 635.067 413.302 627C430.168 618.933 443.368 606.467 452.902 589.6C462.435 572.733 467.202 550.733 467.202 523.6C467.202 502.333 464.268 485.467 458.402 473C453.268 459.8 445.935 449.533 436.402 442.2C427.602 434.867 417.335 429.733 405.602 426.8C394.602 423.867 383.602 422.4 372.602 422.4C361.602 421.667 351.335 421.3 341.802 421.3H291.202C272.135 421.3 258.202 416.9 249.402 408.1C240.602 398.567 236.202 383.167 236.202 361.9C236.202 342.1 240.968 328.167 250.502 320.1C260.035 311.3 274.702 306.9 294.502 306.9H344.002C353.535 306.9 363.802 306.533 374.802 305.8C386.535 305.067 397.535 302.5 407.802 298.1C418.068 292.967 426.502 284.9 433.102 273.9C439.702 262.9 443.002 246.767 443.002 225.5C443.002 192.5 434.202 168.667 416.602 154C399.735 138.6 370.402 130.9 328.602 130.9H133.902V639.1Z" fill="white"/>
</svg>
